<?xml version="1.0" standalone="no"?>
<!DOCTYPE svg PUBLIC "-//W3C//DTD SVG 20010904//EN"
 "http://www.w3.org/TR/2001/REC-SVG-20010904/DTD/svg10.dtd">
<svg version="1.0" xmlns="http://www.w3.org/2000/svg"
 width="260.000000pt" height="260.000000pt" viewBox="0 0 260.000000 260.000000"
 preserveAspectRatio="xMidYMid meet">
<metadata>
Created by potrace 1.11, written by Peter Selinger 2001-2013
</metadata>
<g transform="translate(0.000000,260.000000) scale(0.100000,-0.100000)"
fill="#000000" stroke="none">
<path d="M703 2555 c-3 -9 -6 -245 -7 -525 0 -281 -3 -511 -6 -511 -3 -1 -153
-2 -333 -3 -278 -1 -329 -4 -337 -16 -15 -23 -4 -58 27 -88 16 -15 37 -38 48
-52 11 -14 32 -31 48 -39 15 -8 27 -17 27 -21 0 -11 74 -85 110 -110 46 -31
70 -56 70 -73 0 -7 7 -22 15 -33 8 -10 15 -33 15 -49 0 -76 70 -156 194 -224
123 -67 121 -67 166 -22 22 22 40 45 40 52 0 6 5 29 11 49 9 31 19 41 52 54
23 9 43 13 46 8 3 -4 22 -8 41 -9 72 -4 81 -9 144 -68 53 -50 71 -76 105 -151
23 -51 41 -96 41 -102 0 -5 14 -25 31 -43 17 -18 37 -46 46 -63 8 -17 29 -44
46 -60 17 -15 31 -38 32 -50 4 -46 19 -102 34 -125 9 -14 23 -45 31 -70 9 -24
25 -49 35 -55 11 -6 22 -13 25 -16 3 -3 12 -6 20 -8 8 -2 16 -8 18 -13 2 -5
12 -9 21 -9 10 0 30 -9 44 -21 17 -13 46 -22 83 -24 42 -4 61 -10 71 -25 20
-28 64 -26 97 5 24 22 26 30 22 77 -3 29 -12 76 -21 103 -24 79 -19 145 14
214 37 76 59 104 118 149 26 20 50 39 53 43 3 4 28 19 55 34 71 39 162 108
238 180 40 37 117 76 157 79 10 1 15 11 15 31 0 17 8 41 17 55 11 16 17 45 17
82 0 32 6 69 16 87 24 47 21 108 -8 171 -14 30 -28 69 -32 85 -4 17 -14 38
-23 48 -14 16 -17 46 -18 203 0 101 -3 187 -6 190 -4 3 -21 8 -40 10 -18 3
-42 9 -53 14 -11 4 -35 14 -52 22 -18 7 -33 16 -33 19 0 13 -72 41 -79 32 -3
-6 -30 -9 -58 -8 -29 1 -53 -3 -53 -7 0 -5 -4 -7 -9 -3 -5 3 -28 -2 -51 -11
-37 -15 -42 -15 -58 -1 -20 18 -107 33 -115 20 -8 -13 -64 -8 -82 7 -9 7 -26
10 -41 6 -20 -5 -31 -1 -48 17 -18 20 -31 24 -72 22 -27 -1 -54 2 -61 7 -7 5
-14 5 -18 -1 -4 -7 -14 -6 -29 4 -12 8 -25 12 -28 9 -4 -3 -9 4 -13 16 -8 27
-50 44 -75 30 -14 -7 -23 -4 -44 16 l-26 26 0 216 c0 163 -3 217 -12 224 -7 4
-147 8 -311 8 -258 0 -298 -2 -304 -15z"/>
</g>
</svg>
