<?xml version="1.0" standalone="no"?>
<!DOCTYPE svg PUBLIC "-//W3C//DTD SVG 20010904//EN"
 "http://www.w3.org/TR/2001/REC-SVG-20010904/DTD/svg10.dtd">
<svg version="1.0" xmlns="http://www.w3.org/2000/svg"
 width="933.000000pt" height="933.000000pt" viewBox="0 0 933.000000 933.000000"
 preserveAspectRatio="xMidYMid meet">
<metadata>
Created by potrace 1.11, written by Peter Selinger 2001-2013
</metadata>
<g transform="translate(0.000000,933.000000) scale(0.100000,-0.100000)"
fill="#000000" stroke="none">
<path d="M3575 9111 c-758 -5 -1005 -9 -1021 -18 -12 -7 -29 -28 -37 -46 -15
-31 -17 -125 -17 -893 0 -1259 -11 -2696 -22 -2716 -8 -17 -79 -18 -1188 -20
l-1179 -3 -30 -29 c-29 -28 -31 -34 -31 -103 0 -75 16 -131 47 -165 9 -10 44
-34 77 -54 48 -28 67 -46 86 -82 54 -105 101 -155 195 -207 64 -36 84 -54 153
-129 24 -25 62 -60 85 -77 23 -17 67 -61 97 -99 79 -99 164 -171 253 -215 102
-50 188 -141 206 -218 7 -29 26 -72 42 -97 72 -113 79 -134 79 -227 0 -87 1
-90 55 -198 30 -60 55 -115 55 -122 0 -20 111 -132 170 -170 30 -20 75 -58 99
-85 24 -26 48 -48 53 -48 5 0 21 -9 36 -20 15 -11 60 -34 100 -50 40 -16 92
-43 116 -59 24 -17 70 -42 102 -56 32 -14 68 -34 79 -45 34 -32 144 -81 206
-92 57 -10 61 -9 130 25 41 20 65 37 58 40 -9 4 -8 6 5 6 11 1 16 6 13 15 -3
8 25 40 69 80 71 65 74 69 74 112 0 44 50 213 85 286 19 39 34 48 105 68 25 7
71 24 103 38 55 24 59 24 95 9 23 -10 80 -19 147 -22 61 -4 128 -10 150 -15
22 -5 62 -10 88 -10 47 0 107 -22 107 -39 0 -23 96 -123 149 -155 33 -20 74
-53 92 -74 18 -20 52 -51 75 -69 23 -18 64 -61 92 -96 40 -50 55 -80 72 -141
19 -71 70 -179 91 -192 5 -3 9 -13 9 -22 0 -9 20 -57 45 -107 24 -49 61 -135
81 -190 35 -97 39 -103 123 -185 92 -89 132 -146 176 -245 29 -68 129 -176
209 -227 l49 -32 -6 -82 c-5 -75 -4 -87 19 -131 19 -35 27 -67 30 -120 2 -46
9 -82 20 -100 10 -15 41 -64 70 -108 38 -58 60 -108 83 -184 17 -58 37 -112
45 -120 7 -9 19 -33 25 -53 12 -37 61 -88 84 -88 24 0 163 -63 197 -90 19 -15
64 -37 99 -49 79 -27 130 -53 169 -86 17 -14 57 -37 89 -52 52 -24 68 -27 163
-25 148 2 220 -18 282 -78 103 -99 172 -114 254 -55 27 19 67 44 89 55 58 28
70 40 85 84 17 51 7 220 -20 348 -25 119 -67 283 -78 306 -22 43 -33 124 -33
253 0 163 6 190 72 324 26 55 51 111 53 125 5 23 31 67 125 210 60 91 245 260
285 260 8 0 55 37 103 83 97 92 113 102 264 180 148 76 221 117 244 138 11 10
65 48 121 86 106 71 172 123 236 185 21 21 71 61 110 91 76 56 158 133 195
184 15 21 75 56 200 119 175 87 179 89 266 94 82 6 90 8 112 35 30 37 32 83 5
135 -11 22 -20 42 -20 44 0 3 21 27 46 53 51 53 88 119 98 174 3 19 2 69 -4
110 -7 49 -7 109 -2 170 8 82 15 107 56 190 54 113 82 256 70 363 -7 69 -15
87 -54 133 -16 17 -33 53 -39 80 -16 73 -45 141 -73 173 -20 23 -26 43 -30 97
-6 81 -60 199 -108 234 -16 12 -34 36 -40 52 -6 20 -10 239 -10 628 0 684 2
662 -76 700 -32 15 -71 23 -132 26 -70 4 -97 10 -137 33 -27 15 -65 31 -83 35
-44 9 -203 89 -224 112 -47 50 -131 100 -194 114 -50 11 -59 10 -122 -14 -67
-27 -69 -27 -116 -11 -55 19 -136 15 -183 -10 -17 -8 -67 -17 -114 -19 -46 -3
-101 -12 -121 -21 -21 -9 -46 -16 -56 -16 -10 0 -33 -11 -52 -25 -53 -39 -93
-34 -150 19 -53 50 -117 74 -149 56 -31 -16 -57 -12 -98 16 -47 32 -107 29
-160 -9 -29 -21 -40 -24 -66 -16 -18 5 -62 7 -98 3 -65 -6 -68 -5 -136 35 -79
47 -130 53 -178 21 -16 -11 -38 -20 -48 -20 -30 0 -82 47 -107 96 -13 25 -33
50 -44 57 -26 13 -206 18 -262 6 -28 -6 -54 -4 -90 7 -27 8 -74 14 -104 12
-81 -4 -258 55 -271 90 -13 33 -53 80 -98 114 -39 29 -100 37 -157 19 -16 -5
-51 -12 -79 -14 l-49 -5 -71 69 -70 69 -5 743 c-5 808 -3 777 -62 820 -35 26
60 24 -1143 18z"/>
</g>
</svg>
