<?xml version="1.0" standalone="no"?>
<!DOCTYPE svg PUBLIC "-//W3C//DTD SVG 20010904//EN"
 "http://www.w3.org/TR/2001/REC-SVG-20010904/DTD/svg10.dtd">
<svg version="1.0" xmlns="http://www.w3.org/2000/svg"
 width="781.000000pt" height="781.000000pt" viewBox="0 0 781.000000 781.000000"
 preserveAspectRatio="xMidYMid meet">
<metadata>
Created by potrace 1.11, written by Peter Selinger 2001-2013
</metadata>
<g transform="translate(0.000000,781.000000) scale(0.100000,-0.100000)"
fill="#000000" stroke="none">
<path d="M2145 5941 c-281 -123 -458 -219 -683 -368 -198 -131 -323 -233 -487
-398 -399 -398 -618 -840 -701 -1410 -22 -148 -25 -518 -6 -680 49 -410 179
-864 336 -1173 l35 -67 -6 360 c-9 568 22 861 147 1373 112 458 172 637 300
887 220 434 583 908 1040 1363 90 89 157 162 149 162 -8 0 -63 -22 -124 -49z"/>
<path d="M3350 5480 c-247 -23 -528 -83 -724 -154 -329 -120 -576 -284 -866
-575 -193 -193 -304 -333 -393 -494 -187 -338 -339 -831 -427 -1390 -12 -76
-20 -141 -17 -143 3 -3 30 43 61 103 71 139 199 348 307 500 671 946 1649
1649 2752 1978 156 47 337 94 440 115 32 6 56 14 53 18 -3 3 -84 14 -179 24
-196 22 -843 33 -1007 18z"/>
<path d="M4000 4634 c-234 -25 -510 -89 -727 -170 -111 -40 -401 -179 -537
-256 -148 -83 -451 -289 -596 -404 -163 -130 -513 -477 -633 -628 -48 -60 -85
-112 -82 -114 2 -3 33 13 67 36 35 22 137 79 227 126 912 479 1821 758 2771
851 224 23 720 31 940 16 337 -23 708 -82 933 -149 53 -16 97 -26 97 -21 0 4
-24 32 -52 62 -208 212 -695 448 -1158 562 -168 41 -401 80 -560 95 -157 14
-538 11 -690 -6z"/>
<path d="M4755 3699 c-459 -29 -981 -140 -1336 -284 -260 -106 -346 -158 -735
-444 -107 -79 -137 -109 -96 -97 48 15 382 79 572 110 1076 177 2192 179 3223
5 433 -72 934 -194 1176 -285 35 -13 67 -21 70 -18 17 18 -253 230 -474 372
-298 191 -536 317 -765 405 -502 193 -1053 272 -1635 236z"/>
</g>
</svg>
